<svg width="300" height="100" viewBox="0 0 300 100" fill="none" xmlns="http://www.w3.org/2000/svg">
<g clip-path="url(#clip0_47_46)">
<path d="M0 49.2V98.4H13.0672V58.32L18.0762 58.56L23.0853 58.8L30.7622 78.56L38.3848 98.32L45.8984 98.4C49.9819 98.4 53.3575 98.24 53.3575 98C53.3575 97.76 49.873 88.64 45.6806 77.76C41.4338 66.88 37.8947 57.76 37.7858 57.52C37.677 57.2 38.9837 56 40.726 54.72C44.7005 51.84 48.7296 46.32 50.4719 41.36C52.8675 34.32 52.9764 21.92 50.6897 15.36C48.294 8.56 42.7405 2.8 36.588 0.88C34.8457 0.32 27.1688 0 16.8784 0H0V49.2ZM34.6824 18.4C37.6769 20.4 39.2015 24 39.2015 29.2C39.2015 34 37.8403 37.68 35.2813 39.76C33.7568 40.96 31.8512 41.28 23.3031 41.44L13.0672 41.76V16.8H22.7586C31.0889 16.8 32.7223 17.04 34.6824 18.4V18.4ZM207.985 50V98.4H220.508V1.6H207.985V50ZM277.241 46.96C277.405 84.24 277.405 84.4 278.657 88.16C280.073 92.4 283.448 97.2 286.171 98.88C287.368 99.6 290.091 100 294.011 100H300V84H296.515C293.848 84 292.759 83.6 291.615 82.32L290.2 80.72V43.2H300V28H290.2V9.6H277.078L277.241 46.96Z" fill="white"/>
<path d="M70.1268 27.92C65.7166 30.08 62.7221 32.8 59.5097 37.76C56.243 42.96 54.7185 46.96 53.6295 53.76C50.6894 72 56.0796 89.52 66.9689 97.12C70.3446 99.52 70.7802 99.6 77.586 99.6C83.684 99.6 85.0996 99.36 87.8219 97.68C91.6332 95.44 96.6967 88.88 98.7112 83.44L100.127 79.52L95.7711 75.76C93.3754 73.68 91.1976 72 90.9798 72C90.762 72 89.8364 73.6 88.8564 75.52C86.6785 80.16 83.7384 82.96 80.145 84C76.9326 84.88 74.6459 84.4 71.8691 82.32C68.6023 79.92 65.3355 73.6 65.3355 69.6C65.3355 68 65.5533 68 83.3028 68H101.27V61.28C101.27 45.92 96.4244 34.56 87.3863 28.72C83.5206 26.16 74.537 25.76 70.1268 27.92V27.92ZM84.8274 43.52C86.243 44.96 87.6041 47.28 88.4753 49.92L89.8909 54L77.8038 54.24C71.1613 54.32 65.6077 54.24 65.4444 54C64.6822 52.88 68.6023 45.76 71.3246 43.36C74.1014 40.88 74.5914 40.72 78.4571 40.96C81.9417 41.2 82.9217 41.52 84.8274 43.52V43.52ZM168.838 27.6C161.815 30.48 155.336 38.08 152.668 46.64C150.762 52.88 149.945 62.48 150.762 69.76C152.885 88.72 162.414 100 176.352 100C184.519 100 189.963 97.12 195.245 90.16C198.294 86.08 200.363 80.96 201.724 74.08C202.867 68.24 202.595 55.12 201.234 49.6C199.002 40.56 193.067 32.16 186.37 28.64C182.232 26.4 173.085 25.92 168.838 27.6ZM182.123 45.52C189.746 50.48 192.25 65.44 187.132 75.36C183.484 82.4 175.807 85.04 170.635 81.04C167.804 78.8 164.755 73.84 163.884 70C162.795 65.2 163.448 56.64 165.136 52.88C169.002 44.32 175.698 41.44 182.123 45.52V45.52ZM100.889 29.12C101.052 29.68 105.408 45.52 110.581 64.32L120 98.48L125.934 98.24L131.869 98L141.071 64.8C146.134 46.56 150.435 30.8 150.599 29.76L150.925 27.92L144.283 28.16L137.586 28.4L131.815 50.96C128.657 63.36 125.88 73.28 125.717 72.96C125.499 72.64 122.831 62.4 119.728 50.16L114.065 28H107.314C101.869 28 100.671 28.24 100.889 29.12V29.12ZM227.041 49.84C227.041 62.16 227.314 73.76 227.64 76.4C228.838 86.16 232.377 92.88 238.421 97.12C241.905 99.52 242.287 99.6 249.365 99.6C256.279 99.6 256.933 99.44 259.982 97.36C266.025 93.2 269.891 85.92 271.089 76.4C271.415 73.76 271.688 62.16 271.688 49.84V28H259.219L259.056 49.76C258.893 70.64 258.838 71.76 257.64 74.96C255.898 79.76 252.958 81.84 248.548 81.44C244.628 81.12 242.395 79.12 240.871 74.64C239.945 71.92 239.836 69.2 239.673 49.76L239.51 28H227.041V49.84Z" fill="white"/>
</g>
<defs>
<clipPath id="clip0_47_46">
<rect width="300" height="100" fill="white"/>
</clipPath>
</defs>
</svg>
